<?xml version="1.0" standalone="no"?>
<!DOCTYPE svg PUBLIC "-//W3C//DTD SVG 20010904//EN"
 "http://www.w3.org/TR/2001/REC-SVG-20010904/DTD/svg10.dtd">
<svg version="1.0" xmlns="http://www.w3.org/2000/svg"
 width="320.000000pt" height="320.000000pt" viewBox="0 0 320.000000 320.000000"
 preserveAspectRatio="xMidYMid meet">
<metadata>
Created by potrace 1.11, written by Peter Selinger 2001-2013
</metadata>
<g transform="translate(0.000000,320.000000) scale(0.100000,-0.100000)"
fill="#000000" stroke="none">
<path d="M0 1600 l0 -1600 1600 0 1600 0 0 1600 0 1600 -1600 0 -1600 0 0
-1600z m1866 1515 c319 -55 592 -196 823 -426 261 -261 405 -573 442 -956 29
-297 -49 -637 -207 -899 -170 -284 -416 -500 -716 -629 -188 -81 -381 -119
-598 -119 -283 0 -516 62 -760 202 -137 79 -222 146 -342 270 -198 205 -323
436 -390 721 -15 65 -21 134 -25 286 -5 182 -3 213 20 351 15 82 38 184 53
225 117 329 430 681 738 829 128 62 288 115 419 139 133 25 415 28 543 6z"/>
<path d="M1350 2821 c-121 -26 -328 -114 -435 -185 -161 -108 -316 -280 -399
-442 -51 -101 -44 -105 9 -5 56 104 119 183 227 286 83 81 217 178 247 180 9
0 41 15 71 32 129 74 338 123 524 123 64 0 132 6 161 14 47 13 40 14 -135 14
-140 1 -206 -4 -270 -17z"/>
<path d="M2223 2667 c26 -26 47 -53 47 -62 0 -8 16 -32 35 -54 59 -65 90 -144
90 -231 0 -65 -5 -85 -33 -142 -81 -164 -301 -291 -577 -332 -99 -15 -145 -28
-145 -42 0 -13 210 9 295 31 404 102 611 415 448 679 -33 54 -107 130 -163
168 l-45 31 48 -46z"/>
<path d="M1435 2519 c-279 -46 -459 -234 -404 -418 6 -21 19 -48 30 -62 l19
-24 -9 30 c-5 17 -14 43 -20 58 -6 16 -11 51 -11 78 0 175 213 311 510 326
164 8 287 -25 363 -96 112 -104 51 -224 -147 -287 -146 -47 -240 -43 -306 13
-85 71 17 157 168 140 26 -2 56 -7 67 -11 11 -3 4 1 -15 10 -82 39 -190 26
-247 -31 -43 -43 -43 -77 0 -120 51 -51 117 -62 247 -41 165 26 262 82 296
172 14 38 15 51 5 85 -25 83 -118 152 -239 178 -60 13 -232 13 -307 0z"/>
<path d="M450 2039 c0 -2 -12 -38 -26 -79 -35 -100 -46 -296 -20 -344 43 -81
194 -136 371 -136 85 0 122 6 229 35 70 19 150 46 179 60 28 13 54 21 58 17 3
-4 17 -83 30 -177 13 -93 25 -162 27 -153 3 15 -60 519 -75 598 -14 78 -13 -6
1 -105 9 -58 16 -110 16 -115 0 -38 -339 -130 -477 -130 -199 0 -343 72 -343
169 0 53 31 102 84 135 38 24 61 30 124 34 93 5 150 -9 191 -47 37 -35 41 -75
10 -117 -15 -21 -12 -19 10 6 17 19 31 44 31 56 0 65 -118 129 -233 126 -55
-1 -127 -34 -178 -80 l-52 -47 6 75 c3 41 15 106 27 143 12 38 19 71 16 75 -3
3 -6 3 -6 1z"/>
<path d="M551 1764 c-26 -33 -26 -54 -1 -86 21 -27 76 -55 87 -44 3 3 -1 6
-10 6 -8 0 -29 12 -46 26 -35 30 -42 76 -14 106 9 10 13 18 10 18 -3 0 -15
-12 -26 -26z"/>
<path d="M1841 1723 c-61 -65 -71 -83 -50 -83 12 0 139 120 139 131 0 4 -6 9
-14 12 -9 4 -37 -19 -75 -60z"/>
<path d="M2110 1696 c0 -2 -14 -50 -30 -107 -17 -57 -35 -122 -41 -144 -6 -22
-15 -51 -20 -65 -8 -22 -76 -259 -101 -350 -17 -63 -26 -94 -58 -203 -30 -98
-34 -135 -11 -111 5 5 26 70 46 144 38 136 118 419 134 475 10 36 20 73 61
220 17 61 33 118 36 128 3 9 1 17 -5 17 -6 0 -11 -2 -11 -4z"/>
<path d="M678 1623 c12 -2 30 -2 40 0 9 3 -1 5 -23 4 -22 0 -30 -2 -17 -4z"/>
<path d="M1560 1423 c-36 -38 -103 -109 -150 -158 -47 -49 -88 -89 -92 -87 -5
1 -8 -6 -8 -15 0 -11 63 45 161 143 89 89 160 167 158 173 -3 7 -34 -18 -69
-56z"/>
<path d="M1302 1215 c0 -16 2 -22 5 -12 2 9 2 23 0 30 -3 6 -5 -1 -5 -18z"/>
<path d="M1324 1009 c10 -54 86 -589 86 -600 0 -5 5 -9 10 -9 14 0 13 28 -6
150 -8 58 -27 190 -42 294 -18 128 -31 191 -40 194 -10 3 -12 -4 -8 -29z"/>
</g>
</svg>
